<svg width="180" height="71" viewBox="0 0 180 71" fill="none" xmlns="http://www.w3.org/2000/svg">
<path d="M35.2212 57.9977C34.3919 58.0219 33.5848 57.7267 32.9653 57.1727C32.3457 56.6186 31.9607 55.8477 31.889 55.0178L31.514 52.0667C27.9426 51.0447 25.8533 48.3912 25.3104 44.1778L22.0962 19.3134C21.4066 19.202 20.7087 19.1516 20.0104 19.1628C18.9769 19.1543 17.947 19.2883 16.9497 19.5609V57.2698H10.6426V26.9585C10.6426 22.8455 12.4819 19.941 15.8319 18.7325V16.7782C15.8319 14.5191 17.1997 13.0023 19.2319 13.0023C21.264 13.0023 22.539 14.2717 22.8676 16.5882L23.1176 18.399C26.7854 19.4282 28.9283 22.3865 29.564 27.188L32.5354 51.1559C34.3107 51.5001 36.1352 51.5001 37.9104 51.1559L40.8819 27.1916C41.5033 22.3865 43.6712 19.4282 47.3283 18.3883L47.5783 16.5774C47.9069 14.2717 49.1997 12.9916 51.214 12.9916C53.2283 12.9916 54.614 14.5084 54.614 16.7675V18.7218C57.964 19.9302 59.8033 22.8347 59.8033 26.9477V57.259H53.489V19.5573C52.4917 19.2847 51.4619 19.1507 50.4283 19.1592C49.73 19.148 49.0321 19.1984 48.3426 19.3098L45.1283 44.1778C44.5962 48.3159 42.4569 51.0339 38.9247 52.0667L38.5712 55.0214C38.516 55.8606 38.1332 56.644 37.5058 57.2014C36.8785 57.7587 36.0575 58.0449 35.2212 57.9977ZM32.6819 52.3535L33.0069 54.8959C33.041 55.4534 33.2925 55.975 33.707 56.3475C34.1215 56.72 34.6655 56.9135 35.2212 56.8861C35.4976 56.906 35.7752 56.87 36.0375 56.7803C36.2999 56.6905 36.5416 56.5488 36.7484 56.3636C36.9552 56.1783 37.1229 55.9533 37.2415 55.7018C37.3601 55.4503 37.4273 55.1775 37.439 54.8995L37.764 52.3535C36.0812 52.6308 34.3647 52.6308 32.6819 52.3535ZM54.614 56.1581H58.6783V26.9585C58.6783 23.473 57.2783 21.0669 54.614 19.9445V56.1581ZM11.7569 56.1581H15.8319V19.9445C13.1712 21.0669 11.7854 23.473 11.7854 26.9585L11.7569 56.1581ZM23.2783 19.6218L26.4283 44.0308C26.8783 47.5628 28.539 49.847 31.3604 50.8439L28.4497 27.3278C27.914 23.1826 26.2176 20.651 23.2783 19.6218ZM47.1676 19.6218C44.2283 20.651 42.5247 23.1826 41.9962 27.3314L39.0854 50.8295C41.9104 49.8327 43.5676 47.5485 44.0176 44.0164L47.1676 19.6218ZM16.9569 18.3739C17.9587 18.1293 18.9866 18.0089 20.0176 18.0154C20.6623 18.0085 21.3067 18.0469 21.9462 18.1301L21.7533 16.7209C21.5069 14.9925 20.6569 14.1175 19.2319 14.1175C17.8069 14.1175 16.9569 15.1323 16.9569 16.7639V18.3739ZM50.4283 18.0154C51.4593 18.0089 52.4872 18.1293 53.489 18.3739V16.7782C53.489 15.1467 52.6176 14.1319 51.214 14.1319C49.8104 14.1319 48.939 15.0068 48.6926 16.7352L48.4997 18.1444C49.1391 18.0612 49.7836 18.0229 50.4283 18.0297V18.0154Z" fill="#FF603B"/>
<path d="M77.214 57.2697H71.0176V13.7302H77.214V57.2697ZM72.1426 56.1402H76.089V14.8598H72.1426V56.1402Z" fill="#FF603B"/>
<path d="M117.414 57.9977C114.725 57.9977 114.111 55.5342 113.911 54.7238L113.446 52.6583C109.421 51.9412 106.964 49.3343 105.946 44.7121L100.114 19.2812C99.4473 19.1973 98.7757 19.1566 98.1035 19.1593C96.9873 19.1411 95.8748 19.2922 94.8035 19.6075V57.259H88.4893V26.7792C88.4893 22.8348 90.275 20.0916 93.6785 18.8078V16.7782C93.6785 14.5192 95.0428 13.0023 97.075 13.0023C98.8285 13.0023 100.118 14.1211 100.525 15.9929L101.043 18.2879C104.971 19.0051 107.329 21.5367 108.425 26.2306L114.371 51.6651C115.041 51.7488 115.715 51.7895 116.389 51.787C117.501 51.7956 118.609 51.6594 119.686 51.3818V13.7303H126V45.1818C126 48.4091 124.118 50.9407 120.811 52.185V54.1465C120.811 56.5275 119.511 57.9977 117.414 57.9977ZM114.643 52.8376L115 54.462C115.425 56.1689 116.125 56.8681 117.411 56.8681C118.839 56.8681 119.682 55.882 119.682 54.1608V52.54C118.601 52.7883 117.495 52.9087 116.386 52.8986C115.804 52.9 115.222 52.8712 114.643 52.8125V52.8305V52.8376ZM89.6143 56.1402H93.6785V20.0199C90.9785 21.1924 89.6143 23.4623 89.6143 26.7756V56.1402ZM101.318 19.4927L107.032 44.4611C107.918 48.4593 109.889 50.7005 113.161 51.4499L107.332 26.4816C106.382 22.426 104.514 20.235 101.318 19.4927ZM120.811 14.8598V50.9837C123.439 49.865 124.875 47.8318 124.875 45.1962V14.8598H120.811ZM94.8035 18.417C95.8812 18.138 96.9907 18.003 98.1035 18.0154C98.6856 18.014 99.2673 18.0427 99.8464 18.1014V18.0835L99.425 16.2224C99.2535 15.4335 98.7107 14.1175 97.075 14.1175C95.4393 14.1175 94.8035 15.4837 94.8035 16.7639V18.417Z" fill="#FF603B"/>
<path d="M169.357 57.2697H162.75L159.493 44.3033H141.179L137.982 57.2697H131.375L139.896 25.7787C140.882 22.1821 143.136 19.7222 146.429 18.6465L147.018 16.1722C147.375 14.8096 148.089 13.0131 150.343 13.0131C152.596 13.0131 153.314 14.806 153.664 16.1615L154.246 18.6465C157.532 19.7222 159.786 22.1929 160.775 25.7859L169.357 57.2697ZM163.625 56.1402H167.882L159.689 26.0764C158.879 23.1252 157.121 21.0311 154.579 19.9804L159.643 40.0648H141.107L146.107 19.9625C143.561 21.0382 141.804 23.1216 140.993 26.0584L132.857 56.1402H137.114L140.311 43.1737H160.357L163.625 56.1402ZM142.554 38.9281H158.189L153.318 19.5286C151.366 19.0301 149.32 19.0301 147.368 19.5286L142.554 38.9281ZM147.679 18.2592V18.3022C149.438 17.94 151.252 17.94 153.011 18.3022V18.2556L152.575 16.4161C152.15 14.7701 151.525 14.1247 150.346 14.1247C149.168 14.1247 148.543 14.7701 148.114 16.4268L147.679 18.2556V18.2592Z" fill="#FF603B"/>
</svg>
